<svg width="32" height="32" fill="none" xmlns="http://www.w3.org/2000/svg"><path d="M19.375 11.875a.625.625 0 100 1.25.625.625 0 000-1.25z" fill="#3FB59B"/><path d="M31.268 27.732l-8.343-8.342A12.388 12.388 0 0025 12.5C25 5.607 19.392 0 12.5 0 5.607 0 0 5.607 0 12.5 0 19.392 5.607 25 12.5 25c2.472 0 4.843-.716 6.89-2.075l2.306 2.306v.001l6.036 6.036c.473.472 1.1.732 1.768.732.668 0 1.295-.26 1.767-.732.473-.472.733-1.1.733-1.768 0-.668-.26-1.296-.732-1.768zm-12.172-6.124A11.154 11.154 0 0112.5 23.75c-6.203 0-11.25-5.047-11.25-11.25S6.297 1.25 12.5 1.25 23.75 6.297 23.75 12.5c0 2.386-.74 4.667-2.142 6.596a11.304 11.304 0 01-2.512 2.512zm1.311.567c.647-.53 1.238-1.12 1.768-1.768l1.773 1.773c-.54.637-1.131 1.229-1.768 1.768l-1.773-1.773zm9.977 8.209c-.237.236-.55.366-.884.366-.334 0-.647-.13-.884-.366l-5.55-5.55a16.42 16.42 0 001.768-1.767l5.55 5.55c.236.235.366.55.366.883 0 .334-.13.648-.366.884z" fill="#3FB59B"/><path d="M12.5 2.5c-5.514 0-10 4.486-10 10s4.486 10 10 10 10-4.486 10-10-4.486-10-10-10zm0 18.75c-4.825 0-8.75-3.925-8.75-8.75s3.925-8.75 8.75-8.75 8.75 3.925 8.75 8.75-3.925 8.75-8.75 8.75z" fill="#3FB59B"/><path d="M19.504 9.817a7.5 7.5 0 00-2.71-3.463A7.447 7.447 0 0012.5 5a.625.625 0 000 1.25 6.293 6.293 0 015.837 4.015.625.625 0 101.167-.448z" fill="#3FB59B"/></svg>