<svg id="Camada_1" data-name="Camada 1" xmlns="http://www.w3.org/2000/svg" width="568.54mm" height="458.01mm" viewBox="0 0 1611.6 1298.3">
  <defs>
    <style>
      .cls-1 {
        fill: #bfbfbf;
      }

      .cls-1, .cls-2, .cls-3 {
        stroke: #000;
        stroke-miterlimit: 10;
      }

      .cls-2 {
        fill: #fff;
      }

      .cls-3 {
        fill: none;
      }
    </style>
  </defs>
  <g id="bloco-professores-2andar">
    <rect id="bloco-professores-2andar-2" class="cls-1" x="1250.7" y="0.7" width="360.4" height="1297.1"/>
    <g id="_47" data-name=" 47">
      <rect class="cls-2" x="1492.4" y="0.7" width="118.7" height="72.1"/>
      <rect class="cls-2" x="1492.4" y="72.8" width="118.7" height="72.1"/>
      <rect class="cls-2" x="1492.4" y="144.8" width="118.7" height="72.1"/>
      <rect class="cls-2" x="1492.4" y="216.9" width="118.7" height="72.1"/>
      <rect class="cls-2" x="1492.4" y="288.9" width="118.7" height="72.1"/>
      <rect class="cls-2" x="1492.4" y="361" width="118.7" height="72.1"/>
      <rect class="cls-2" x="1492.4" y="433.1" width="118.7" height="72.1"/>
      <rect class="cls-2" x="1492.4" y="505.1" width="118.7" height="72.1"/>
      <rect class="cls-2" x="1492.4" y="577.2" width="118.7" height="72.1"/>
      <rect class="cls-2" x="1492.4" y="649.3" width="118.7" height="72.1"/>
      <rect class="cls-2" x="1492.4" y="721.3" width="118.7" height="72.1"/>
      <rect class="cls-2" x="1492.4" y="793.4" width="118.7" height="72.1"/>
      <rect class="cls-2" x="1492.4" y="865.4" width="118.7" height="72.1"/>
      <rect class="cls-2" x="1492.4" y="937.5" width="118.7" height="72.1"/>
      <rect class="cls-2" x="1492.4" y="1009.6" width="118.7" height="72.1"/>
      <rect class="cls-2" x="1492.4" y="1081.6" width="118.7" height="72.1"/>
      <rect class="cls-2" x="1492.4" y="1153.7" width="118.7" height="72.1"/>
      <rect class="cls-2" x="1492.4" y="1225.7" width="118.7" height="72.1"/>
    </g>
    <g id="rampa">
      <polyline class="cls-1" points="1430.9 685.2 1464.4 685.2 1464.4 1259.4 1397.4 1259.4 1397.4 685.2"/>
      <line class="cls-3" x1="1430.9" y1="685.2" x2="1430.9" y2="1224.5"/>
    </g>
    <g id="escada">
      <rect class="cls-1" x="1398.3" y="461.3" width="32.6" height="7.7"/>
      <rect class="cls-1" x="1398.3" y="453.7" width="32.6" height="7.7"/>
      <rect class="cls-1" x="1398.3" y="445.9" width="32.6" height="7.7"/>
      <rect class="cls-1" x="1398.3" y="438.2" width="32.6" height="7.7"/>
      <rect class="cls-1" x="1398.3" y="430.4" width="32.6" height="7.7"/>
      <rect class="cls-1" x="1398.3" y="422.8" width="32.6" height="7.7"/>
      <rect class="cls-1" x="1398.3" y="415" width="32.6" height="7.7"/>
      <rect class="cls-1" x="1398.3" y="407.3" width="32.6" height="7.7"/>
      <rect class="cls-1" x="1398.3" y="399.5" width="32.6" height="7.7"/>
      <rect class="cls-1" x="1430.9" y="461.3" width="32.6" height="7.7"/>
      <rect class="cls-1" x="1430.9" y="453.7" width="32.6" height="7.7"/>
      <rect class="cls-1" x="1430.9" y="445.9" width="32.6" height="7.7"/>
      <rect class="cls-1" x="1430.9" y="438.2" width="32.6" height="7.7"/>
      <rect class="cls-1" x="1430.9" y="430.4" width="32.6" height="7.7"/>
      <rect class="cls-1" x="1430.9" y="422.8" width="32.6" height="7.7"/>
      <rect class="cls-1" x="1430.9" y="415" width="32.6" height="7.7"/>
      <rect class="cls-1" x="1430.9" y="407.3" width="32.6" height="7.7"/>
      <rect class="cls-1" x="1430.9" y="399.5" width="32.6" height="7.7"/>
      <rect class="cls-1" x="1398.3" y="530.8" width="32.6" height="7.7"/>
      <rect class="cls-1" x="1398.3" y="523.2" width="32.6" height="7.7"/>
      <rect class="cls-1" x="1398.3" y="515.4" width="32.6" height="7.7"/>
      <rect class="cls-1" x="1398.3" y="507.7" width="32.6" height="7.7"/>
      <rect class="cls-1" x="1398.3" y="499.9" width="32.6" height="7.7"/>
      <rect class="cls-1" x="1398.3" y="492.3" width="32.6" height="7.7"/>
      <rect class="cls-1" x="1398.3" y="484.5" width="32.6" height="7.7"/>
      <rect class="cls-1" x="1398.3" y="476.8" width="32.6" height="7.7"/>
      <rect class="cls-1" x="1398.3" y="469" width="32.6" height="7.7"/>
      <rect class="cls-1" x="1430.9" y="530.8" width="32.6" height="7.7"/>
      <rect class="cls-1" x="1430.9" y="523.2" width="32.6" height="7.7"/>
      <rect class="cls-1" x="1430.9" y="515.4" width="32.6" height="7.7"/>
      <rect class="cls-1" x="1430.9" y="507.7" width="32.6" height="7.7"/>
      <rect class="cls-1" x="1430.9" y="499.9" width="32.6" height="7.7"/>
      <rect class="cls-1" x="1430.9" y="492.3" width="32.6" height="7.7"/>
      <rect class="cls-1" x="1430.9" y="484.5" width="32.6" height="7.7"/>
      <rect class="cls-1" x="1430.9" y="476.8" width="32.6" height="7.7"/>
      <rect class="cls-1" x="1430.9" y="469" width="32.6" height="7.7"/>
    </g>
    <g id="escada-2">
      <rect class="cls-1" x="1398.3" y="172.9" width="32.6" height="7.7"/>
      <rect class="cls-1" x="1398.3" y="165.2" width="32.6" height="7.7"/>
      <rect class="cls-1" x="1398.3" y="157.5" width="32.6" height="7.7"/>
      <rect class="cls-1" x="1398.3" y="149.7" width="32.6" height="7.7"/>
      <rect class="cls-1" x="1398.3" y="142" width="32.6" height="7.7"/>
      <rect class="cls-1" x="1398.3" y="134.3" width="32.6" height="7.7"/>
      <rect class="cls-1" x="1398.3" y="126.6" width="32.6" height="7.7"/>
      <rect class="cls-1" x="1398.3" y="118.9" width="32.6" height="7.7"/>
      <rect class="cls-1" x="1398.3" y="111.1" width="32.6" height="7.7"/>
      <rect class="cls-1" x="1430.9" y="172.9" width="32.6" height="7.7"/>
      <rect class="cls-1" x="1430.9" y="165.2" width="32.6" height="7.7"/>
      <rect class="cls-1" x="1430.9" y="157.5" width="32.6" height="7.7"/>
      <rect class="cls-1" x="1430.9" y="149.7" width="32.6" height="7.7"/>
      <rect class="cls-1" x="1430.9" y="142" width="32.6" height="7.7"/>
      <rect class="cls-1" x="1430.9" y="134.3" width="32.6" height="7.7"/>
      <rect class="cls-1" x="1430.9" y="126.6" width="32.6" height="7.7"/>
      <rect class="cls-1" x="1430.9" y="118.9" width="32.6" height="7.7"/>
      <rect class="cls-1" x="1430.9" y="111.1" width="32.6" height="7.7"/>
      <rect class="cls-1" x="1398.3" y="242.4" width="32.6" height="7.7"/>
      <rect class="cls-1" x="1398.3" y="234.7" width="32.6" height="7.7"/>
      <rect class="cls-1" x="1398.3" y="227" width="32.6" height="7.7"/>
      <rect class="cls-1" x="1398.3" y="219.2" width="32.6" height="7.7"/>
      <rect class="cls-1" x="1398.3" y="211.5" width="32.6" height="7.7"/>
      <rect class="cls-1" x="1398.3" y="203.8" width="32.6" height="7.7"/>
      <rect class="cls-1" x="1398.3" y="196.1" width="32.6" height="7.7"/>
      <rect class="cls-1" x="1398.3" y="188.4" width="32.6" height="7.7"/>
      <rect class="cls-1" x="1398.3" y="180.6" width="32.6" height="7.7"/>
      <rect class="cls-1" x="1430.9" y="242.4" width="32.6" height="7.7"/>
      <rect class="cls-1" x="1430.9" y="234.7" width="32.6" height="7.7"/>
      <rect class="cls-1" x="1430.9" y="227" width="32.6" height="7.7"/>
      <rect class="cls-1" x="1430.9" y="219.2" width="32.6" height="7.7"/>
      <rect class="cls-1" x="1430.9" y="211.5" width="32.6" height="7.7"/>
      <rect class="cls-1" x="1430.9" y="203.8" width="32.6" height="7.7"/>
      <rect class="cls-1" x="1430.9" y="196.1" width="32.6" height="7.7"/>
      <rect class="cls-1" x="1430.9" y="188.4" width="32.6" height="7.7"/>
      <rect class="cls-1" x="1430.9" y="180.6" width="32.6" height="7.7"/>
    </g>
    <g id="_46" data-name=" 46">
      <rect class="cls-2" x="1284.1" y="685.2" width="85.3" height="76.6"/>
      <rect class="cls-2" x="1250.7" y="761.8" width="118.7" height="76.6"/>
      <rect class="cls-2" x="1250.7" y="838.4" width="118.7" height="76.6"/>
      <rect class="cls-2" x="1250.7" y="914.9" width="118.7" height="76.6"/>
      <rect class="cls-2" x="1250.7" y="991.5" width="118.7" height="76.6"/>
      <rect class="cls-2" x="1250.7" y="1068.1" width="118.7" height="76.6"/>
      <rect class="cls-2" x="1250.7" y="1144.7" width="118.7" height="76.6"/>
      <rect class="cls-2" x="1250.7" y="1221.2" width="118.7" height="76.6"/>
    </g>
    <rect id="_45" data-name=" 45" class="cls-2" x="1250.7" y="685.2" width="33.4" height="76.6"/>
    <g id="_44" data-name=" 44">
      <polygon class="cls-2" points="1250.7 577.1 1250.7 629 1284.3 629 1284.3 655.3 1335.9 655.3 1335.9 629 1369.4 629 1369.4 577.1 1250.7 577.1"/>
      <line class="cls-3" x1="1310.1" y1="577.1" x2="1310.1" y2="655.3"/>
    </g>
    <g id="_43" data-name=" 43">
      <rect class="cls-2" x="1250.7" y="0.7" width="118.7" height="72"/>
      <rect class="cls-2" x="1250.7" y="72.8" width="118.7" height="72"/>
      <rect class="cls-2" x="1250.7" y="144.8" width="118.7" height="72"/>
      <rect class="cls-2" x="1250.7" y="216.9" width="118.7" height="72"/>
      <rect class="cls-2" x="1250.7" y="288.9" width="118.7" height="72"/>
      <rect class="cls-2" x="1250.7" y="361" width="118.7" height="72"/>
      <rect class="cls-2" x="1250.7" y="433" width="118.7" height="72"/>
      <rect class="cls-2" x="1250.7" y="505.1" width="118.7" height="72"/>
    </g>
  </g>
  <g id="bloco-professores-1andar">
    <rect id="bloco-professores-1andar-2" class="cls-1" x="832.6" y="0.7" width="360.4" height="1297.1"/>
    <g id="_42" data-name=" 42">
      <rect class="cls-2" x="1074.3" y="0.7" width="118.7" height="72.1"/>
      <rect class="cls-2" x="1074.3" y="72.8" width="118.7" height="72.1"/>
      <rect class="cls-2" x="1074.3" y="144.8" width="118.7" height="72.1"/>
      <rect class="cls-2" x="1074.3" y="216.9" width="118.7" height="72.1"/>
      <rect class="cls-2" x="1074.3" y="288.9" width="118.7" height="72.1"/>
      <rect class="cls-2" x="1074.3" y="361" width="118.7" height="72.1"/>
      <rect class="cls-2" x="1074.3" y="433.1" width="118.7" height="72.1"/>
      <rect class="cls-2" x="1074.3" y="505.1" width="118.7" height="72.1"/>
      <rect class="cls-2" x="1074.3" y="577.2" width="118.7" height="72.1"/>
      <rect class="cls-2" x="1074.3" y="649.3" width="118.7" height="72.1"/>
      <rect class="cls-2" x="1074.3" y="721.3" width="118.7" height="72.1"/>
      <rect class="cls-2" x="1074.3" y="793.4" width="118.7" height="72.1"/>
      <rect class="cls-2" x="1074.3" y="865.4" width="118.7" height="72.1"/>
      <rect class="cls-2" x="1074.3" y="937.5" width="118.7" height="72.1"/>
      <rect class="cls-2" x="1074.3" y="1009.6" width="118.7" height="72.1"/>
      <rect class="cls-2" x="1074.3" y="1081.6" width="118.7" height="72.1"/>
      <rect class="cls-2" x="1074.3" y="1153.7" width="118.7" height="72.1"/>
      <rect class="cls-2" x="1074.3" y="1225.7" width="118.7" height="72.1"/>
    </g>
    <g id="rampa-2">
      <polyline class="cls-1" points="1012.8 685.2 1046.3 685.2 1046.3 1259.4 979.3 1259.4 979.3 685.2"/>
      <line class="cls-3" x1="1012.8" y1="685.2" x2="1012.8" y2="1224.5"/>
    </g>
    <g id="escada-3">
      <rect class="cls-1" x="980.2" y="461.3" width="32.6" height="7.7"/>
      <rect class="cls-1" x="980.2" y="453.7" width="32.6" height="7.7"/>
      <rect class="cls-1" x="980.2" y="445.9" width="32.6" height="7.7"/>
      <rect class="cls-1" x="980.2" y="438.2" width="32.6" height="7.7"/>
      <rect class="cls-1" x="980.2" y="430.4" width="32.6" height="7.7"/>
      <rect class="cls-1" x="980.2" y="422.8" width="32.6" height="7.7"/>
      <rect class="cls-1" x="980.2" y="415" width="32.6" height="7.7"/>
      <rect class="cls-1" x="980.2" y="407.3" width="32.6" height="7.7"/>
      <rect class="cls-1" x="980.2" y="399.5" width="32.6" height="7.7"/>
      <rect class="cls-1" x="1012.8" y="461.3" width="32.6" height="7.7"/>
      <rect class="cls-1" x="1012.8" y="453.7" width="32.6" height="7.7"/>
      <rect class="cls-1" x="1012.8" y="445.9" width="32.6" height="7.7"/>
      <rect class="cls-1" x="1012.8" y="438.2" width="32.6" height="7.7"/>
      <rect class="cls-1" x="1012.8" y="430.4" width="32.6" height="7.7"/>
      <rect class="cls-1" x="1012.8" y="422.8" width="32.6" height="7.7"/>
      <rect class="cls-1" x="1012.8" y="415" width="32.6" height="7.7"/>
      <rect class="cls-1" x="1012.8" y="407.3" width="32.6" height="7.7"/>
      <rect class="cls-1" x="1012.8" y="399.5" width="32.6" height="7.7"/>
      <rect class="cls-1" x="980.2" y="530.8" width="32.6" height="7.7"/>
      <rect class="cls-1" x="980.2" y="523.2" width="32.6" height="7.7"/>
      <rect class="cls-1" x="980.2" y="515.4" width="32.6" height="7.7"/>
      <rect class="cls-1" x="980.2" y="507.7" width="32.6" height="7.7"/>
      <rect class="cls-1" x="980.2" y="499.9" width="32.6" height="7.7"/>
      <rect class="cls-1" x="980.2" y="492.3" width="32.6" height="7.7"/>
      <rect class="cls-1" x="980.2" y="484.5" width="32.6" height="7.7"/>
      <rect class="cls-1" x="980.2" y="476.8" width="32.6" height="7.7"/>
      <rect class="cls-1" x="980.2" y="469" width="32.6" height="7.7"/>
      <rect class="cls-1" x="1012.8" y="530.8" width="32.6" height="7.7"/>
      <rect class="cls-1" x="1012.8" y="523.2" width="32.6" height="7.7"/>
      <rect class="cls-1" x="1012.8" y="515.4" width="32.6" height="7.7"/>
      <rect class="cls-1" x="1012.8" y="507.7" width="32.6" height="7.7"/>
      <rect class="cls-1" x="1012.8" y="499.9" width="32.6" height="7.7"/>
      <rect class="cls-1" x="1012.8" y="492.3" width="32.6" height="7.7"/>
      <rect class="cls-1" x="1012.8" y="484.5" width="32.6" height="7.7"/>
      <rect class="cls-1" x="1012.8" y="476.8" width="32.6" height="7.7"/>
      <rect class="cls-1" x="1012.8" y="469" width="32.6" height="7.7"/>
    </g>
    <g id="escada-4">
      <rect class="cls-1" x="980.2" y="172.9" width="32.6" height="7.7"/>
      <rect class="cls-1" x="980.2" y="165.2" width="32.6" height="7.7"/>
      <rect class="cls-1" x="980.2" y="157.5" width="32.6" height="7.7"/>
      <rect class="cls-1" x="980.2" y="149.7" width="32.6" height="7.7"/>
      <rect class="cls-1" x="980.2" y="142" width="32.6" height="7.7"/>
      <rect class="cls-1" x="980.2" y="134.3" width="32.6" height="7.7"/>
      <rect class="cls-1" x="980.2" y="126.6" width="32.6" height="7.7"/>
      <rect class="cls-1" x="980.2" y="118.9" width="32.6" height="7.7"/>
      <rect class="cls-1" x="980.2" y="111.1" width="32.6" height="7.7"/>
      <rect class="cls-1" x="1012.8" y="172.9" width="32.6" height="7.7"/>
      <rect class="cls-1" x="1012.8" y="165.2" width="32.6" height="7.7"/>
      <rect class="cls-1" x="1012.8" y="157.5" width="32.6" height="7.7"/>
      <rect class="cls-1" x="1012.8" y="149.7" width="32.6" height="7.7"/>
      <rect class="cls-1" x="1012.8" y="142" width="32.6" height="7.7"/>
      <rect class="cls-1" x="1012.8" y="134.3" width="32.6" height="7.7"/>
      <rect class="cls-1" x="1012.8" y="126.6" width="32.6" height="7.7"/>
      <rect class="cls-1" x="1012.8" y="118.9" width="32.6" height="7.7"/>
      <rect class="cls-1" x="1012.8" y="111.1" width="32.6" height="7.7"/>
      <rect class="cls-1" x="980.2" y="242.4" width="32.6" height="7.7"/>
      <rect class="cls-1" x="980.2" y="234.7" width="32.6" height="7.7"/>
      <rect class="cls-1" x="980.2" y="227" width="32.6" height="7.7"/>
      <rect class="cls-1" x="980.2" y="219.2" width="32.6" height="7.7"/>
      <rect class="cls-1" x="980.2" y="211.5" width="32.6" height="7.7"/>
      <rect class="cls-1" x="980.2" y="203.8" width="32.6" height="7.7"/>
      <rect class="cls-1" x="980.2" y="196.1" width="32.6" height="7.7"/>
      <rect class="cls-1" x="980.2" y="188.4" width="32.6" height="7.7"/>
      <rect class="cls-1" x="980.2" y="180.6" width="32.6" height="7.7"/>
      <rect class="cls-1" x="1012.8" y="242.4" width="32.6" height="7.7"/>
      <rect class="cls-1" x="1012.8" y="234.7" width="32.6" height="7.7"/>
      <rect class="cls-1" x="1012.8" y="227" width="32.6" height="7.7"/>
      <rect class="cls-1" x="1012.8" y="219.2" width="32.6" height="7.7"/>
      <rect class="cls-1" x="1012.8" y="211.5" width="32.6" height="7.7"/>
      <rect class="cls-1" x="1012.8" y="203.8" width="32.6" height="7.7"/>
      <rect class="cls-1" x="1012.8" y="196.1" width="32.6" height="7.7"/>
      <rect class="cls-1" x="1012.8" y="188.4" width="32.6" height="7.7"/>
      <rect class="cls-1" x="1012.8" y="180.6" width="32.6" height="7.7"/>
    </g>
    <g id="_41" data-name=" 41">
      <rect class="cls-2" x="866" y="685.2" width="85.3" height="76.6"/>
      <rect class="cls-2" x="832.6" y="761.8" width="118.7" height="76.6"/>
      <rect class="cls-2" x="832.6" y="838.4" width="118.7" height="76.6"/>
      <rect class="cls-2" x="832.6" y="914.9" width="118.7" height="76.6"/>
      <rect class="cls-2" x="832.6" y="991.5" width="118.7" height="76.6"/>
      <rect class="cls-2" x="832.6" y="1068.1" width="118.7" height="76.6"/>
      <rect class="cls-2" x="832.6" y="1144.7" width="118.7" height="76.6"/>
      <rect class="cls-2" x="832.6" y="1221.2" width="118.7" height="76.6"/>
    </g>
    <rect id="_40" data-name=" 40" class="cls-2" x="832.6" y="685.2" width="33.4" height="76.6"/>
    <g id="_39" data-name=" 39">
      <polygon class="cls-2" points="832.6 577.1 832.6 629 866.2 629 866.2 655.3 917.8 655.3 917.8 629 951.3 629 951.3 577.1 832.6 577.1"/>
      <line class="cls-3" x1="892" y1="577.1" x2="892" y2="655.3"/>
    </g>
    <g id="_38" data-name=" 38">
      <rect class="cls-2" x="832.6" y="0.7" width="118.7" height="72"/>
      <rect class="cls-2" x="832.6" y="72.8" width="118.7" height="72"/>
      <rect class="cls-2" x="832.6" y="144.8" width="118.7" height="72"/>
      <rect class="cls-2" x="832.6" y="216.9" width="118.7" height="72"/>
      <rect class="cls-2" x="832.6" y="288.9" width="118.7" height="72"/>
      <rect class="cls-2" x="832.6" y="361" width="118.7" height="72"/>
      <rect class="cls-2" x="832.6" y="433" width="118.7" height="72"/>
      <rect class="cls-2" x="832.6" y="505.1" width="118.7" height="72"/>
    </g>
  </g>
  <g id="bloco-professores-terreo">
    <rect id="bloco-professores-terreo-2" class="cls-1" x="416.5" y="0.5" width="360.4" height="1297.1"/>
    <rect id="_37" data-name=" 37" class="cls-2" x="658.2" y="1009.3" width="118.7" height="72.1"/>
    <rect id="_36" data-name=" 36" class="cls-2" x="658.2" y="937.2" width="118.7" height="72.1"/>
    <rect id="_35" data-name=" 35" class="cls-2" x="658.2" y="865.2" width="118.7" height="72.1"/>
    <rect id="_34" data-name=" 34" class="cls-2" x="658.2" y="793.1" width="118.7" height="72.1"/>
    <rect id="_33" data-name=" 33" class="cls-2" x="658.2" y="721.1" width="118.7" height="72.1"/>
    <rect id="_32" data-name=" 32" class="cls-2" x="658.2" y="649" width="118.7" height="72.1"/>
    <rect id="_31" data-name=" 31" class="cls-2" x="658.2" y="576.9" width="118.7" height="72.1"/>
    <rect id="_30" data-name=" 30" class="cls-2" x="658.2" y="504.9" width="118.7" height="72.1"/>
    <rect id="_29" data-name=" 29" class="cls-2" x="658.2" y="432.8" width="118.7" height="72.1"/>
    <rect id="_28" data-name=" 28" class="cls-2" x="658.2" y="360.8" width="118.7" height="72.1"/>
    <rect id="_27" data-name=" 27" class="cls-2" x="658.2" y="288.7" width="118.7" height="72.1"/>
    <rect id="_26" data-name=" 26" class="cls-2" x="658.2" y="216.6" width="118.7" height="72.1"/>
    <rect id="_25" data-name=" 25" class="cls-2" x="658.2" y="144.6" width="118.7" height="72.1"/>
    <rect id="_24" data-name=" 24" class="cls-2" x="658.2" y="72.5" width="118.7" height="72.1"/>
    <rect id="_23" data-name=" 23" class="cls-2" x="658.2" y="0.5" width="118.7" height="72.1"/>
    <g id="rampa-3">
      <polyline class="cls-1" points="630.2 685 630.2 1040.6 563.2 1040.6 563.2 685 596.7 685"/>
      <line class="cls-3" x1="596.7" y1="1018.9" x2="596.7" y2="685"/>
    </g>
    <g id="escada-5">
      <rect class="cls-1" x="564.1" y="461.1" width="32.6" height="7.7"/>
      <rect class="cls-1" x="564.1" y="453.5" width="32.6" height="7.7"/>
      <rect class="cls-1" x="564.1" y="445.8" width="32.6" height="7.7"/>
      <rect class="cls-1" x="564.1" y="438" width="32.6" height="7.7"/>
      <rect class="cls-1" x="564.1" y="430.3" width="32.6" height="7.7"/>
      <rect class="cls-1" x="564.1" y="422.5" width="32.6" height="7.7"/>
      <rect class="cls-1" x="564.1" y="414.8" width="32.6" height="7.7"/>
      <rect class="cls-1" x="564.1" y="407.2" width="32.6" height="7.7"/>
      <rect class="cls-1" x="564.1" y="399.4" width="32.6" height="7.7"/>
      <rect class="cls-1" x="596.7" y="461.1" width="32.6" height="7.7"/>
      <rect class="cls-1" x="596.7" y="453.5" width="32.6" height="7.7"/>
      <rect class="cls-1" x="596.7" y="445.8" width="32.6" height="7.7"/>
      <rect class="cls-1" x="596.7" y="438" width="32.6" height="7.7"/>
      <rect class="cls-1" x="596.7" y="430.3" width="32.6" height="7.7"/>
      <rect class="cls-1" x="596.7" y="422.5" width="32.6" height="7.7"/>
      <rect class="cls-1" x="596.7" y="414.8" width="32.6" height="7.7"/>
      <rect class="cls-1" x="596.7" y="407.2" width="32.6" height="7.7"/>
      <rect class="cls-1" x="596.7" y="399.4" width="32.6" height="7.7"/>
      <rect class="cls-1" x="564.1" y="530.6" width="32.6" height="7.7"/>
      <rect class="cls-1" x="564.1" y="523" width="32.6" height="7.7"/>
      <rect class="cls-1" x="564.1" y="515.3" width="32.6" height="7.7"/>
      <rect class="cls-1" x="564.1" y="507.5" width="32.6" height="7.7"/>
      <rect class="cls-1" x="564.1" y="499.8" width="32.6" height="7.7"/>
      <rect class="cls-1" x="564.1" y="492" width="32.6" height="7.7"/>
      <rect class="cls-1" x="564.1" y="484.3" width="32.6" height="7.7"/>
      <rect class="cls-1" x="564.1" y="476.7" width="32.6" height="7.7"/>
      <rect class="cls-1" x="564.1" y="468.8" width="32.6" height="7.7"/>
      <rect class="cls-1" x="596.7" y="530.6" width="32.6" height="7.7"/>
      <rect class="cls-1" x="596.7" y="523" width="32.6" height="7.7"/>
      <rect class="cls-1" x="596.7" y="515.3" width="32.6" height="7.7"/>
      <rect class="cls-1" x="596.7" y="507.5" width="32.6" height="7.7"/>
      <rect class="cls-1" x="596.7" y="499.8" width="32.6" height="7.7"/>
      <rect class="cls-1" x="596.7" y="492" width="32.6" height="7.7"/>
      <rect class="cls-1" x="596.7" y="484.3" width="32.6" height="7.7"/>
      <rect class="cls-1" x="596.7" y="476.7" width="32.6" height="7.7"/>
      <rect class="cls-1" x="596.7" y="468.8" width="32.6" height="7.7"/>
    </g>
    <g id="escada-6">
      <rect class="cls-1" x="564.1" y="172.9" width="32.6" height="7.7"/>
      <rect class="cls-1" x="564.1" y="165.2" width="32.6" height="7.7"/>
      <rect class="cls-1" x="564.1" y="157.5" width="32.6" height="7.7"/>
      <rect class="cls-1" x="564.1" y="149.7" width="32.6" height="7.7"/>
      <rect class="cls-1" x="564.1" y="142" width="32.6" height="7.7"/>
      <rect class="cls-1" x="564.1" y="134.3" width="32.6" height="7.7"/>
      <rect class="cls-1" x="564.1" y="126.6" width="32.6" height="7.7"/>
      <rect class="cls-1" x="564.1" y="118.9" width="32.6" height="7.7"/>
      <rect class="cls-1" x="564.1" y="111.1" width="32.6" height="7.7"/>
      <rect class="cls-1" x="596.7" y="172.9" width="32.6" height="7.7"/>
      <rect class="cls-1" x="596.7" y="165.2" width="32.6" height="7.7"/>
      <rect class="cls-1" x="596.7" y="157.5" width="32.6" height="7.7"/>
      <rect class="cls-1" x="596.7" y="149.7" width="32.6" height="7.7"/>
      <rect class="cls-1" x="596.7" y="142" width="32.6" height="7.7"/>
      <rect class="cls-1" x="596.7" y="134.3" width="32.6" height="7.7"/>
      <rect class="cls-1" x="596.7" y="126.6" width="32.6" height="7.7"/>
      <rect class="cls-1" x="596.7" y="118.9" width="32.6" height="7.7"/>
      <rect class="cls-1" x="596.7" y="111.1" width="32.6" height="7.7"/>
      <rect class="cls-1" x="564.1" y="242.4" width="32.6" height="7.7"/>
      <rect class="cls-1" x="564.1" y="234.7" width="32.6" height="7.7"/>
      <rect class="cls-1" x="564.1" y="227" width="32.6" height="7.7"/>
      <rect class="cls-1" x="564.1" y="219.2" width="32.6" height="7.7"/>
      <rect class="cls-1" x="564.1" y="211.5" width="32.6" height="7.7"/>
      <rect class="cls-1" x="564.1" y="203.8" width="32.6" height="7.7"/>
      <rect class="cls-1" x="564.1" y="196.1" width="32.6" height="7.7"/>
      <rect class="cls-1" x="564.1" y="188.4" width="32.6" height="7.7"/>
      <rect class="cls-1" x="564.1" y="180.6" width="32.6" height="7.7"/>
      <rect class="cls-1" x="596.7" y="242.4" width="32.6" height="7.7"/>
      <rect class="cls-1" x="596.7" y="234.7" width="32.6" height="7.7"/>
      <rect class="cls-1" x="596.7" y="227" width="32.6" height="7.7"/>
      <rect class="cls-1" x="596.7" y="219.2" width="32.6" height="7.7"/>
      <rect class="cls-1" x="596.7" y="211.5" width="32.6" height="7.7"/>
      <rect class="cls-1" x="596.7" y="203.8" width="32.6" height="7.7"/>
      <rect class="cls-1" x="596.7" y="196.1" width="32.6" height="7.7"/>
      <rect class="cls-1" x="596.7" y="188.4" width="32.6" height="7.7"/>
      <rect class="cls-1" x="596.7" y="180.6" width="32.6" height="7.7"/>
    </g>
    <rect id="_22" data-name=" 22" class="cls-2" x="416.5" y="1081.6" width="360.4" height="216.2"/>
    <rect id="_21" data-name=" 21" class="cls-2" x="416.5" y="1002.3" width="118.7" height="79.3"/>
    <rect id="_20" data-name=" 20" class="cls-2" x="416.5" y="922.9" width="118.7" height="79.3"/>
    <rect id="_19" data-name=" 19" class="cls-2" x="416.5" y="843.7" width="118.7" height="79.3"/>
    <rect id="_18" data-name=" 18" class="cls-2" x="416.5" y="764.3" width="118.7" height="79.3"/>
    <rect id="_17" data-name=" 17" class="cls-2" x="450" y="685" width="85.2" height="79.3"/>
    <rect id="_16" data-name=" 16" class="cls-2" x="416.5" y="685" width="33.4" height="79.3"/>
    <g id="_15" data-name=" 15">
      <polygon class="cls-2" points="416.5 576.9 416.5 628.8 450.1 628.8 450.1 655.1 501.7 655.1 501.7 628.8 535.2 628.8 535.2 576.9 416.5 576.9"/>
      <line class="cls-3" x1="475.9" y1="576.9" x2="475.9" y2="655.1"/>
    </g>
    <rect id="_14" data-name=" 14" class="cls-2" x="416.5" y="504.8" width="118.7" height="72.1"/>
    <rect id="_13" data-name=" 13" class="cls-2" x="416.5" y="432.7" width="118.7" height="72.1"/>
    <rect id="_12" data-name=" 12" class="cls-2" x="416.5" y="360.7" width="118.7" height="72.1"/>
    <rect id="_11" data-name=" 11" class="cls-2" x="416.5" y="288.7" width="118.7" height="72.1"/>
    <rect id="_10" data-name=" 10" class="cls-2" x="416.5" y="216.6" width="118.7" height="72.1"/>
    <rect id="_9" data-name=" 9" class="cls-2" x="416.5" y="144.6" width="118.7" height="72.1"/>
    <rect id="_8" data-name=" 8" class="cls-2" x="416.5" y="72.5" width="118.7" height="72.1"/>
    <rect id="_7" data-name=" 7" class="cls-2" x="416.5" y="0.5" width="118.7" height="72.1"/>
  </g>
  <g id="bloco-professores-subsolo">
    <rect id="bloco-professores-subsolo-2" class="cls-1" x="0.5" y="0.5" width="360.4" height="360.2"/>
    <g id="escada-7">
      <rect class="cls-1" x="148.1" y="172.9" width="32.6" height="7.7"/>
      <rect class="cls-1" x="148.1" y="165.2" width="32.6" height="7.7"/>
      <rect class="cls-1" x="148.1" y="157.5" width="32.6" height="7.7"/>
      <rect class="cls-1" x="148.1" y="149.7" width="32.6" height="7.7"/>
      <rect class="cls-1" x="148.1" y="142" width="32.6" height="7.7"/>
      <rect class="cls-1" x="148.1" y="134.3" width="32.6" height="7.7"/>
      <rect class="cls-1" x="148.1" y="126.6" width="32.6" height="7.7"/>
      <rect class="cls-1" x="148.1" y="118.9" width="32.6" height="7.7"/>
      <rect class="cls-1" x="148.1" y="111.1" width="32.6" height="7.7"/>
      <rect class="cls-1" x="180.7" y="172.9" width="32.6" height="7.7"/>
      <rect class="cls-1" x="180.7" y="165.2" width="32.6" height="7.7"/>
      <rect class="cls-1" x="180.7" y="157.5" width="32.6" height="7.7"/>
      <rect class="cls-1" x="180.7" y="149.7" width="32.6" height="7.7"/>
      <rect class="cls-1" x="180.7" y="142" width="32.6" height="7.7"/>
      <rect class="cls-1" x="180.7" y="134.3" width="32.6" height="7.7"/>
      <rect class="cls-1" x="180.7" y="126.6" width="32.6" height="7.7"/>
      <rect class="cls-1" x="180.7" y="118.9" width="32.6" height="7.7"/>
      <rect class="cls-1" x="180.7" y="111.1" width="32.6" height="7.7"/>
      <rect class="cls-1" x="148.1" y="242.4" width="32.6" height="7.7"/>
      <rect class="cls-1" x="148.1" y="234.7" width="32.6" height="7.7"/>
      <rect class="cls-1" x="148.1" y="227" width="32.6" height="7.7"/>
      <rect class="cls-1" x="148.1" y="219.2" width="32.6" height="7.7"/>
      <rect class="cls-1" x="148.1" y="211.5" width="32.6" height="7.7"/>
      <rect class="cls-1" x="148.1" y="203.8" width="32.6" height="7.7"/>
      <rect class="cls-1" x="148.1" y="196.1" width="32.6" height="7.7"/>
      <rect class="cls-1" x="148.1" y="188.4" width="32.6" height="7.7"/>
      <rect class="cls-1" x="148.1" y="180.6" width="32.6" height="7.7"/>
      <rect class="cls-1" x="180.7" y="242.4" width="32.6" height="7.7"/>
      <rect class="cls-1" x="180.7" y="234.7" width="32.6" height="7.7"/>
      <rect class="cls-1" x="180.7" y="227" width="32.6" height="7.7"/>
      <rect class="cls-1" x="180.7" y="219.2" width="32.6" height="7.7"/>
      <rect class="cls-1" x="180.7" y="211.5" width="32.6" height="7.7"/>
      <rect class="cls-1" x="180.7" y="203.8" width="32.6" height="7.7"/>
      <rect class="cls-1" x="180.7" y="196.1" width="32.6" height="7.7"/>
      <rect class="cls-1" x="180.7" y="188.4" width="32.6" height="7.7"/>
      <rect class="cls-1" x="180.7" y="180.6" width="32.6" height="7.7"/>
    </g>
    <rect id="_6" data-name=" 6" class="cls-2" x="242.2" y="240.6" width="118.7" height="120.1"/>
    <rect id="_5" data-name=" 5" class="cls-2" x="242.2" y="120.5" width="118.7" height="120.1"/>
    <rect id="_4" data-name=" 4" class="cls-2" x="242.2" y="0.5" width="118.7" height="120.1"/>
    <rect id="_3" data-name=" 3" class="cls-2" x="0.5" y="240.6" width="118.7" height="120.1"/>
    <rect id="_2" data-name=" 2" class="cls-2" x="0.5" y="120.5" width="118.7" height="120.1"/>
    <rect id="_1" data-name=" 1" class="cls-2" x="0.5" y="0.5" width="118.7" height="120.1"/>
  </g>
</svg>
