<svg id="Camada_1" data-name="Camada 1" xmlns="http://www.w3.org/2000/svg" width="276.01mm" height="457.94mm" viewBox="0 0 782.39 1298.08">
  <defs>
    <style>
      .cls-1 {
        fill: #bfbfbf;
      }

      .cls-1, .cls-2, .cls-3 {
        stroke: #000;
        stroke-miterlimit: 10;
      }

      .cls-2 {
        fill: #fff;
      }

      .cls-3 {
        fill: none;
      }
    </style>
  </defs>
  <g id="central-aulas-1andar">
    <rect id="central-aulas-1andar-2" class="cls-1" x="421.49" y="0.5" width="360.4" height="1297.08"/>
    <rect id="_38" data-name=" 38" class="cls-2" x="663.19" y="1140.79" width="118.7" height="156.8"/>
    <rect id="_37" data-name=" 37" class="cls-2" x="663.19" y="983.89" width="118.7" height="156.8"/>
    <rect id="_36" data-name=" 36" class="cls-2" x="663.19" y="827.09" width="118.7" height="156.8"/>
    <rect id="_35" data-name=" 35" class="cls-2" x="663.19" y="670.19" width="118.7" height="156.8"/>
    <g id="_34" data-name=" 34">
      <polygon class="cls-2" points="663.19 527.09 663.19 550.19 663.19 602.09 696.79 602.09 696.79 628.39 748.39 628.39 748.39 602.09 781.89 602.09 781.89 550.19 781.89 527.09 663.19 527.09"/>
      <line class="cls-3" x1="722.59" y1="527.09" x2="722.59" y2="628.39"/>
    </g>
    <rect id="_33" data-name=" 33" class="cls-2" x="663.19" y="395.4" width="118.7" height="131.6"/>
    <rect id="_32" data-name=" 32" class="cls-2" x="663.19" y="263.8" width="118.7" height="131.6"/>
    <rect id="_31" data-name=" 31" class="cls-2" x="663.19" y="132.1" width="118.7" height="131.6"/>
    <rect id="_30" data-name=" 30" class="cls-2" x="663.19" y="0.5" width="118.7" height="131.6"/>
    <g id="escada">
      <rect class="cls-1" x="601.69" y="1089.39" width="32.6" height="7.7"/>
      <rect class="cls-1" x="601.69" y="1096.99" width="32.6" height="7.7"/>
      <line class="cls-3" x1="601.69" y1="1104.79" x2="634.29" y2="1104.79"/>
      <rect class="cls-1" x="569.09" y="1089.39" width="32.6" height="7.7"/>
      <rect class="cls-1" x="569.09" y="1096.99" width="32.6" height="7.7"/>
      <line class="cls-3" x1="569.09" y1="1104.79" x2="601.69" y2="1104.79"/>
      <rect class="cls-1" x="601.69" y="1019.89" width="32.6" height="7.7"/>
      <rect class="cls-1" x="601.69" y="1027.49" width="32.6" height="7.7"/>
      <rect class="cls-1" x="601.69" y="1035.29" width="32.6" height="7.7"/>
      <rect class="cls-1" x="601.69" y="1042.99" width="32.6" height="7.7"/>
      <rect class="cls-1" x="601.69" y="1050.79" width="32.6" height="7.7"/>
      <rect class="cls-1" x="601.69" y="1058.39" width="32.6" height="7.7"/>
      <rect class="cls-1" x="601.69" y="1066.19" width="32.6" height="7.7"/>
      <rect class="cls-1" x="601.69" y="1073.89" width="32.6" height="7.7"/>
      <rect class="cls-1" x="601.69" y="1081.69" width="32.6" height="7.7"/>
      <rect class="cls-1" x="569.09" y="1019.89" width="32.6" height="7.7"/>
      <rect class="cls-1" x="569.09" y="1027.49" width="32.6" height="7.7"/>
      <rect class="cls-1" x="569.09" y="1035.29" width="32.6" height="7.7"/>
      <rect class="cls-1" x="569.09" y="1042.99" width="32.6" height="7.7"/>
      <rect class="cls-1" x="569.09" y="1050.79" width="32.6" height="7.7"/>
      <rect class="cls-1" x="569.09" y="1058.39" width="32.6" height="7.7"/>
      <rect class="cls-1" x="569.09" y="1066.19" width="32.6" height="7.7"/>
      <rect class="cls-1" x="569.09" y="1073.89" width="32.6" height="7.7"/>
      <rect class="cls-1" x="569.09" y="1081.69" width="32.6" height="7.7"/>
    </g>
    <g id="escada-2">
      <rect class="cls-1" x="601.69" y="739.69" width="32.6" height="7.7"/>
      <rect class="cls-1" x="601.69" y="747.29" width="32.6" height="7.7"/>
      <line class="cls-3" x1="601.69" y1="755.09" x2="634.29" y2="755.09"/>
      <rect class="cls-1" x="569.09" y="739.69" width="32.6" height="7.7"/>
      <rect class="cls-1" x="569.09" y="747.29" width="32.6" height="7.7"/>
      <line class="cls-3" x1="569.09" y1="755.09" x2="601.69" y2="755.09"/>
      <rect class="cls-1" x="601.69" y="670.19" width="32.6" height="7.7"/>
      <rect class="cls-1" x="601.69" y="677.79" width="32.6" height="7.7"/>
      <rect class="cls-1" x="601.69" y="685.59" width="32.6" height="7.7"/>
      <rect class="cls-1" x="601.69" y="693.29" width="32.6" height="7.7"/>
      <rect class="cls-1" x="601.69" y="701.09" width="32.6" height="7.7"/>
      <rect class="cls-1" x="601.69" y="708.69" width="32.6" height="7.7"/>
      <rect class="cls-1" x="601.69" y="716.49" width="32.6" height="7.7"/>
      <rect class="cls-1" x="601.69" y="724.19" width="32.6" height="7.7"/>
      <rect class="cls-1" x="601.69" y="731.99" width="32.6" height="7.7"/>
      <rect class="cls-1" x="569.09" y="670.19" width="32.6" height="7.7"/>
      <rect class="cls-1" x="569.09" y="677.79" width="32.6" height="7.7"/>
      <rect class="cls-1" x="569.09" y="685.59" width="32.6" height="7.7"/>
      <rect class="cls-1" x="569.09" y="693.29" width="32.6" height="7.7"/>
      <rect class="cls-1" x="569.09" y="701.09" width="32.6" height="7.7"/>
      <rect class="cls-1" x="569.09" y="708.69" width="32.6" height="7.7"/>
      <rect class="cls-1" x="569.09" y="716.49" width="32.6" height="7.7"/>
      <rect class="cls-1" x="569.09" y="724.19" width="32.6" height="7.7"/>
      <rect class="cls-1" x="569.09" y="731.99" width="32.6" height="7.7"/>
    </g>
    <g id="rampa">
      <polyline class="cls-1" points="601.69 601.79 568.19 601.79 568.19 38.9 635.19 38.9 635.19 601.79"/>
      <line class="cls-3" x1="601.69" y1="601.79" x2="601.69" y2="73.1"/>
    </g>
    <rect id="_29" data-name=" 29" class="cls-2" x="421.49" y="1140.79" width="118.7" height="156.8"/>
    <rect id="_28" data-name=" 28" class="cls-2" x="421.49" y="983.89" width="118.7" height="156.8"/>
    <rect id="_27" data-name=" 27" class="cls-2" x="421.49" y="827.09" width="118.7" height="156.8"/>
    <rect id="_26" data-name=" 26" class="cls-2" x="421.49" y="670.19" width="118.7" height="156.8"/>
    <rect id="_25" data-name=" 25" class="cls-2" x="480.79" y="546.09" width="59.3" height="55.7"/>
    <polygon id="_24" data-name=" 24" class="cls-2" points="421.5 527.09 540.19 527.09 540.19 546.09 480.79 546.09 480.79 601.79 421.5 601.79 421.5 527.09"/>
    <rect id="_23" data-name=" 23" class="cls-2" x="421.49" y="395.4" width="118.7" height="131.6"/>
    <rect id="_22" data-name=" 22" class="cls-2" x="421.49" y="263.8" width="118.7" height="131.6"/>
    <rect id="_21" data-name=" 21" class="cls-2" x="421.49" y="132.1" width="118.7" height="131.6"/>
    <rect id="_20" data-name=" 20" class="cls-2" x="421.49" y="0.5" width="118.7" height="131.6"/>
  </g>
  <g id="central-aulas-terreo">
    <rect id="central-aulas-terreo-2" class="cls-1" x="0.5" y="0.5" width="360.4" height="1297.08"/>
    <rect id="_19" data-name=" 19" class="cls-2" x="242.2" y="1140.79" width="118.7" height="156.8"/>
    <rect id="_18" data-name=" 18" class="cls-2" x="242.2" y="983.89" width="118.7" height="156.8"/>
    <rect id="_17" data-name=" 17" class="cls-2" x="242.2" y="827.09" width="118.7" height="156.8"/>
    <rect id="_16" data-name=" 16" class="cls-2" x="242.2" y="670.19" width="118.7" height="156.8"/>
    <g id="_15" data-name=" 15">
      <polygon class="cls-2" points="242.2 527.09 242.2 550.19 242.2 602.09 275.8 602.09 275.8 628.39 327.4 628.39 327.4 602.09 360.9 602.09 360.9 550.19 360.9 527.09 242.2 527.09"/>
      <line class="cls-3" x1="301.6" y1="527.09" x2="301.6" y2="628.39"/>
    </g>
    <rect id="_14" data-name=" 14" class="cls-2" x="242.2" y="395.4" width="118.7" height="131.6"/>
    <rect id="_13" data-name=" 13" class="cls-2" x="242.2" y="263.8" width="118.7" height="131.6"/>
    <rect id="_12" data-name=" 12" class="cls-2" x="242.2" y="132.1" width="118.7" height="131.6"/>
    <rect id="_11" data-name=" 11" class="cls-2" x="242.2" y="0.5" width="118.7" height="131.6"/>
    <g id="escada-3">
      <rect class="cls-1" x="180.7" y="1089.39" width="32.6" height="7.7"/>
      <rect class="cls-1" x="180.7" y="1096.99" width="32.6" height="7.7"/>
      <line class="cls-3" x1="180.7" y1="1104.79" x2="213.3" y2="1104.79"/>
      <rect class="cls-1" x="148.1" y="1089.39" width="32.6" height="7.7"/>
      <rect class="cls-1" x="148.1" y="1096.99" width="32.6" height="7.7"/>
      <line class="cls-3" x1="148.1" y1="1104.79" x2="180.7" y2="1104.79"/>
      <rect class="cls-1" x="180.7" y="1019.89" width="32.6" height="7.7"/>
      <rect class="cls-1" x="180.7" y="1027.49" width="32.6" height="7.7"/>
      <rect class="cls-1" x="180.7" y="1035.29" width="32.6" height="7.7"/>
      <rect class="cls-1" x="180.7" y="1042.99" width="32.6" height="7.7"/>
      <rect class="cls-1" x="180.7" y="1050.79" width="32.6" height="7.7"/>
      <rect class="cls-1" x="180.7" y="1058.39" width="32.6" height="7.7"/>
      <rect class="cls-1" x="180.7" y="1066.19" width="32.6" height="7.7"/>
      <rect class="cls-1" x="180.7" y="1073.89" width="32.6" height="7.7"/>
      <rect class="cls-1" x="180.7" y="1081.69" width="32.6" height="7.7"/>
      <rect class="cls-1" x="148.1" y="1019.89" width="32.6" height="7.7"/>
      <rect class="cls-1" x="148.1" y="1027.49" width="32.6" height="7.7"/>
      <rect class="cls-1" x="148.1" y="1035.29" width="32.6" height="7.7"/>
      <rect class="cls-1" x="148.1" y="1042.99" width="32.6" height="7.7"/>
      <rect class="cls-1" x="148.1" y="1050.79" width="32.6" height="7.7"/>
      <rect class="cls-1" x="148.1" y="1058.39" width="32.6" height="7.7"/>
      <rect class="cls-1" x="148.1" y="1066.19" width="32.6" height="7.7"/>
      <rect class="cls-1" x="148.1" y="1073.89" width="32.6" height="7.7"/>
      <rect class="cls-1" x="148.1" y="1081.69" width="32.6" height="7.7"/>
    </g>
    <g id="escada-4">
      <rect class="cls-1" x="180.7" y="739.69" width="32.6" height="7.7"/>
      <rect class="cls-1" x="180.7" y="747.29" width="32.6" height="7.7"/>
      <line class="cls-3" x1="180.7" y1="755.09" x2="213.3" y2="755.09"/>
      <rect class="cls-1" x="148.1" y="739.69" width="32.6" height="7.7"/>
      <rect class="cls-1" x="148.1" y="747.29" width="32.6" height="7.7"/>
      <line class="cls-3" x1="148.1" y1="755.09" x2="180.7" y2="755.09"/>
      <rect class="cls-1" x="180.7" y="670.19" width="32.6" height="7.7"/>
      <rect class="cls-1" x="180.7" y="677.79" width="32.6" height="7.7"/>
      <rect class="cls-1" x="180.7" y="685.59" width="32.6" height="7.7"/>
      <rect class="cls-1" x="180.7" y="693.29" width="32.6" height="7.7"/>
      <rect class="cls-1" x="180.7" y="701.09" width="32.6" height="7.7"/>
      <rect class="cls-1" x="180.7" y="708.69" width="32.6" height="7.7"/>
      <rect class="cls-1" x="180.7" y="716.49" width="32.6" height="7.7"/>
      <rect class="cls-1" x="180.7" y="724.19" width="32.6" height="7.7"/>
      <rect class="cls-1" x="180.7" y="731.99" width="32.6" height="7.7"/>
      <rect class="cls-1" x="148.1" y="670.19" width="32.6" height="7.7"/>
      <rect class="cls-1" x="148.1" y="677.79" width="32.6" height="7.7"/>
      <rect class="cls-1" x="148.1" y="685.59" width="32.6" height="7.7"/>
      <rect class="cls-1" x="148.1" y="693.29" width="32.6" height="7.7"/>
      <rect class="cls-1" x="148.1" y="701.09" width="32.6" height="7.7"/>
      <rect class="cls-1" x="148.1" y="708.69" width="32.6" height="7.7"/>
      <rect class="cls-1" x="148.1" y="716.49" width="32.6" height="7.7"/>
      <rect class="cls-1" x="148.1" y="724.19" width="32.6" height="7.7"/>
      <rect class="cls-1" x="148.1" y="731.99" width="32.6" height="7.7"/>
    </g>
    <g id="rampa-2">
      <polyline class="cls-1" points="180.7 601.79 147.2 601.79 147.2 38.9 214.2 38.9 214.2 601.79"/>
      <line class="cls-3" x1="180.7" y1="601.79" x2="180.7" y2="73.1"/>
    </g>
    <rect id="_10" data-name=" 10" class="cls-2" x="0.5" y="1140.79" width="118.7" height="156.8"/>
    <rect id="_9" data-name=" 9" class="cls-2" x="0.5" y="983.89" width="118.7" height="156.8"/>
    <rect id="_8" data-name=" 8" class="cls-2" x="0.5" y="827.09" width="118.7" height="156.8"/>
    <rect id="_7" data-name=" 7" class="cls-2" x="0.5" y="670.19" width="118.7" height="156.8"/>
    <rect id="_6" data-name=" 6" class="cls-2" x="59.8" y="546.09" width="59.3" height="55.7"/>
    <polygon id="_5" data-name=" 5" class="cls-2" points="0.5 527.09 119.2 527.09 119.2 546.09 59.8 546.09 59.8 601.79 0.5 601.79 0.5 527.09"/>
    <rect id="_4" data-name=" 4" class="cls-2" x="0.5" y="395.4" width="118.7" height="131.6"/>
    <rect id="_3" data-name=" 3" class="cls-2" x="0.5" y="263.8" width="118.7" height="131.6"/>
    <rect id="_2" data-name=" 2" class="cls-2" x="0.5" y="132.1" width="118.7" height="131.6"/>
    <rect id="_1" data-name=" 1" class="cls-2" x="0.5" y="0.5" width="118.7" height="131.6"/>
  </g>
</svg>
