<svg id="Camada_1" data-name="Camada 1" xmlns="http://www.w3.org/2000/svg" width="604.52mm" height="525mm" viewBox="0 0 1713.59 1488.19">
  <defs>
    <style>
      .cls-1 {
        fill: #bfbfbf;
      }

      .cls-1, .cls-2 {
        stroke: #000;
        stroke-miterlimit: 10;
      }

      .cls-2 {
        fill: #fff;
      }
    </style>
  </defs>
  <title>ifpb-cg-externo</title>
  <path id="caminho-3" class="cls-1" d="M679.64,990.29v-99.8H1022v-32H679.64l-.1-115.8v-.9l-21.8-21.7,33.5-33.49,20.9-20.9,35.8-35.8-22.7-22.6-35,35L496.94,835.69V723.19h-32v112.4L232.65,603.3l21.29,21.4-58-58-22.7,22.8,55.1,55.2,76.09,76L283.14,742v.9l-.1,115.6H108.55v32H283v99.8l.6.7,29,29-126.09,126.1,22.7,22.6,126-126,29.3,29.4.7.7h99.7v87.7h32v-87.7h100.4l29.6-29.6,97.3,97.3,22.8-22.7-97.4-97.4L679,991ZM298,748.29l17-17,127.2,127.2H298Zm25.2,261.2L298,984.29v-93.8h144.1Zm141.7,48.3h-93.4l-25.7-25.7L464.94,913Zm126.2,0h-94.2V913.19l119.4,119.4Zm73.5-73.5-25.5,25.5-119.4-119.3h144.9Zm0-125.8H519.44l127.7-127.7,17.5,17.4Z" transform="translate(-42.85 -46.4)"/>
  <polygon id="caminho-4" class="cls-1" points="945.69 420.7 963.39 438.4 979.09 422.7 979.09 551.6 1004.09 551.6 1004.09 387.4 979.09 387.4 945.69 420.7"/>
  <rect id="caminho-5" class="cls-1" x="1252.99" y="1104.59" width="32" height="30"/>
  <rect id="caminho-6" class="cls-1" x="1159.69" y="1134.59" width="7.5" height="32"/>
  <rect id="caminho-7" class="cls-1" x="888.19" y="1384.59" width="32" height="103.1"/>
  <rect id="caminho-8" class="cls-1" x="817.49" y="1244.59" width="342.2" height="30"/>
  <rect id="caminho-9" class="cls-1" x="1371.69" y="813.09" width="100" height="30"/>
  <rect id="caminho-10" class="cls-1" x="1096.19" y="813.09" width="70" height="30"/>
  <polygon id="caminho-11" class="cls-1" points="799.09 1008.69 791.09 1008.69 752.19 1008.69 752.19 1023.69 792.69 1023.69 792.79 1023.69 821.69 1052.59 821.69 1052.69 821.69 1093.69 821.29 1094.09 703.7 1211.59 662.7 1211.59 659.6 1208.49 637 1185.89 628.6 1194.29 507.4 1315.59 479.5 1287.69 454.1 1287.69 454.1 1203.59 454.1 1199.89 454.1 1193.69 422.1 1193.69 422.1 1199.79 422.1 1203.49 422.1 1287.69 396.7 1287.69 338.1 1346.29 338.1 1355.59 273 1331.99 165.6 1225.79 143 1248.49 251.9 1358.29 338.1 1389.69 338.1 1487.69 396.7 1487.69 479.5 1487.69 538.1 1487.69 538.1 1346.29 530 1338.19 641.89 1226.29 701.6 1226.59 710 1226.59 831.09 1105.39 836.69 1100.09 836.69 1054.29 836.69 1046.29 799.09 1008.69"/>
  <polygon id="rampa" class="cls-1" points="1712.99 397.8 1713.09 372.6 1365.89 372.6 1365.89 263.9 1340.69 263.9 1340.69 397.8 1712.99 397.8"/>
  <polygon id="rampa-2" class="cls-1" points="1340.69 0.5 1340.69 134.4 1365.89 134.4 1365.89 25.7 1713.09 25.7 1712.99 0.5 1340.69 0.5"/>
  <polygon id="caixa" class="cls-2" points="429.8 1373.99 418.1 1362.29 418.1 1345.69 429.8 1333.99 446.4 1333.99 458.1 1345.69 458.1 1362.29 446.4 1373.99 429.8 1373.99"/>
  <polygon id="_42" data-name=" 42" class="cls-2" points="668.2 620.6 701.29 620.6 724.79 644.1 724.79 677.2 701.29 700.6 668.2 700.6 644.79 677.2 644.79 644.1 668.2 620.6"/>
  <polygon id="_41" data-name=" 41" class="cls-2" points="622.1 621.39 589 621.39 565.6 598 565.6 564.9 589 541.4 622.1 541.4 645.6 564.9 645.6 598 622.1 621.39"/>
  <polygon id="_40" data-name=" 40" class="cls-2" points="557.6 731.2 590.7 731.2 614.2 754.69 614.2 787.79 590.7 811.29 557.6 811.29 534.1 787.79 534.1 754.69 557.6 731.2"/>
  <polygon id="_39" data-name=" 39" class="cls-2" points="920.79 844.09 944.19 867.49 944.19 900.69 920.79 924.09 887.59 924.09 864.19 900.69 864.19 867.49 887.59 844.09 920.79 844.09"/>
  <polygon id="_38" data-name=" 38" class="cls-2" points="887.59 812.09 864.19 788.69 864.19 755.49 887.59 732.1 920.79 732.1 944.19 755.49 944.19 788.69 920.79 812.09 887.59 812.09"/>
  <polygon id="_37" data-name=" 37" class="cls-2" points="810.79 844.09 834.19 867.49 834.19 900.69 810.79 924.09 777.59 924.09 754.19 900.69 754.19 867.49 777.59 844.09 810.79 844.09"/>
  <polygon id="_36" data-name=" 36" class="cls-2" points="777.59 812.09 754.19 788.69 754.19 755.49 777.59 732.1 810.79 732.1 834.19 755.49 834.19 788.69 810.79 812.09 777.59 812.09"/>
  <polygon id="_35" data-name=" 35" class="cls-2" points="700.79 844.09 724.2 867.49 724.2 900.69 700.79 924.09 667.6 924.09 644.2 900.69 644.2 867.49 667.6 844.09 700.79 844.09"/>
  <polygon id="_34" data-name=" 34" class="cls-2" points="667.6 812.09 644.2 788.69 644.2 755.49 667.6 732.1 700.79 732.1 724.2 755.49 724.2 788.69 700.79 812.09 667.6 812.09"/>
  <polygon id="_33" data-name=" 33" class="cls-2" points="643.79 1011.09 643.79 977.89 667.2 954.49 700.29 954.49 723.79 977.89 723.79 1011.09 700.29 1034.49 667.2 1034.49 643.79 1011.09"/>
  <polygon id="_32" data-name=" 32" class="cls-2" points="644.6 1057.09 644.6 1090.29 621.1 1113.69 588 1113.69 564.6 1090.29 564.6 1057.09 588 1033.69 621.1 1033.69 644.6 1057.09"/>
  <polygon id="_31" data-name=" 31" class="cls-2" points="534.4 901.49 534.4 868.39 557.9 844.89 591 844.89 614.39 868.39 614.39 901.49 591 924.99 557.9 924.99 534.4 901.49"/>
  <polygon id="_30" data-name=" 30" class="cls-2" points="454.1 1057.49 477.5 1034.09 510.7 1034.09 534.1 1057.49 534.1 1090.69 510.7 1114.09 477.5 1114.09 454.1 1090.69 454.1 1057.49"/>
  <polygon id="_29" data-name=" 29" class="cls-2" points="454.1 947.49 477.5 924.09 510.7 924.09 534.1 947.49 534.1 980.69 510.7 1004.09 477.5 1004.09 454.1 980.69 454.1 947.49"/>
  <polygon id="_28" data-name=" 28" class="cls-2" points="422.1 1090.69 398.7 1114.09 365.5 1114.09 342.1 1090.69 342.1 1057.49 365.5 1034.09 398.7 1034.09 422.1 1057.49 422.1 1090.69"/>
  <polygon id="_27" data-name=" 27" class="cls-2" points="422.1 980.69 398.7 1004.09 365.5 1004.09 342.1 980.69 342.1 947.49 365.5 924.09 398.7 924.09 422.1 947.49 422.1 980.69"/>
  <polygon id="_26" data-name=" 26" class="cls-2" points="255.1 1033.69 288.3 1033.69 311.7 1057.09 311.7 1090.29 288.3 1113.69 255.1 1113.69 231.7 1090.29 231.7 1057.09 255.1 1033.69"/>
  <polygon id="_25" data-name=" 25" class="cls-2" points="209.1 1034.49 175.9 1034.49 152.5 1011.09 152.5 977.89 175.9 954.49 209.1 954.49 232.5 977.89 232.5 1011.09 209.1 1034.49"/>
  <polygon id="_24" data-name=" 24" class="cls-2" points="318.7 844.09 342.1 867.49 342.1 900.69 318.7 924.09 285.5 924.09 262.1 900.69 262.1 867.49 285.5 844.09 318.7 844.09"/>
  <polygon id="_23" data-name=" 23" class="cls-2" points="285.5 812.09 262.1 788.69 262.1 755.49 285.5 732.1 318.7 732.1 342.1 755.49 342.1 788.69 318.7 812.09 285.5 812.09"/>
  <polygon id="_22" data-name=" 22" class="cls-2" points="208.7 844.09 232.1 867.49 232.1 900.69 208.7 924.09 175.5 924.09 152.1 900.69 152.1 867.49 175.5 844.09 208.7 844.09"/>
  <polygon id="_21" data-name=" 21" class="cls-2" points="175.5 812.09 152.1 788.69 152.1 755.49 175.5 732.1 208.7 732.1 232.1 755.49 232.1 788.69 208.7 812.09 175.5 812.09"/>
  <polygon id="_20" data-name=" 20" class="cls-2" points="98.7 844.09 122.1 867.49 122.1 900.69 98.7 924.09 65.5 924.09 42.1 900.69 42.1 867.49 65.5 844.09 98.7 844.09"/>
  <polygon id="_19" data-name=" 19" class="cls-2" points="65.5 812.09 42.1 788.69 42.1 755.49 65.5 732.1 98.7 732.1 122.1 755.49 122.1 788.69 98.7 812.09 65.5 812.09"/>
  <polygon id="_18" data-name=" 18" class="cls-2" points="230.6 598.2 230.6 565.1 254 541.6 287.1 541.6 310.6 565.1 310.6 598.2 287.1 621.6 254 621.6 230.6 598.2"/>
  <polygon id="_17" data-name=" 17" class="cls-2" points="231.4 644.29 231.4 677.39 207.9 700.79 174.8 700.79 151.4 677.39 151.4 644.29 174.8 620.79 207.9 620.79 231.4 644.29"/>
  <polygon id="_16" data-name=" 16" class="cls-2" points="153.6 566.5 153.6 599.6 130.2 623 97 623 73.6 599.6 73.6 566.5 97 543 130.2 543 153.6 566.5"/>
  <rect id="_15" data-name=" 15" class="cls-2" x="1471.69" y="477.9" width="205.5" height="626.7"/>
  <rect id="_14" data-name=" 14" class="cls-2" x="1166.89" y="1134.59" width="204" height="250"/>
  <rect id="_13" data-name=" 13" class="cls-2" x="1166.19" y="477.9" width="205.5" height="626.7"/>
  <g id="_12" data-name=" 12">
    <rect id="telhado" class="cls-2" x="1374.49" y="69.3" width="338.5" height="259.7"/>
    <rect class="cls-2" x="1515.59" y="151.9" width="42.3" height="94.1"/>
    <rect class="cls-2" x="1568.09" y="151.9" width="88.6" height="94.1"/>
    <polygon class="cls-2" points="1656.69 329 1600.19 329 1543.79 329 1543.79 329 1487.39 329 1430.99 329 1374.49 329 1374.49 372.6 1430.99 372.6 1487.39 372.6 1543.79 372.6 1543.79 372.6 1600.19 372.6 1656.69 372.6 1713.09 372.6 1713.09 329 1656.69 329"/>
    <polygon class="cls-2" points="1600.19 25.7 1504.39 25.7 1487.39 25.7 1374.49 25.7 1374.49 69.3 1487.39 69.3 1504.39 69.3 1600.19 69.3 1713.09 69.3 1713.09 25.7 1600.19 25.7"/>
  </g>
  <polyline id="_11" data-name=" 11" class="cls-2" points="1113.29 1384.59 1159.69 1384.59 1159.69 1274.59 1113.79 1274.59 1130.89 1274.59 718.1 1274.59 718.1 1384.59 1130.39 1384.59"/>
  <polygon id="_10" data-name=" 10" class="cls-2" points="817.19 1134.59 1159.69 1134.59 1159.69 1244.59 817.19 1244.59 784.09 1212.39 784.09 1166.79 817.19 1134.59"/>
  <rect id="_9" data-name=" 9" class="cls-2" x="979.19" y="551.6" width="117" height="553"/>
  <rect id="_8" data-name=" 8" class="cls-2" x="643.1" y="1250.99" width="45" height="123"/>
  <polygon id="_7" data-name=" 7" class="cls-2" points="732.5 1182.69 703.6 1211.59 662.7 1211.59 633.79 1182.69 633.79 1141.79 662.7 1112.89 722.89 1052.59 751.89 1023.69 792.79 1023.69 821.69 1052.59 821.69 1093.69 792.79 1122.49 732.5 1182.69"/>
  <polygon id="_6" data-name=" 6" class="cls-2" points="793.79 532.7 822.69 561.6 822.69 602.5 793.79 631.39 752.89 631.39 724 602.5 663.7 542.3 634.79 513.3 634.79 472.4 663.7 443.5 704.6 443.5 733.6 472.4 793.79 532.7"/>
  <polygon id="_5" data-name=" 5" class="cls-2" points="830.69 267.2 830.69 305.7 967.19 442.2 967.19 498.6 927.29 538.5 870.79 538.5 734.29 402 695.89 402 660.7 366.8 660.7 317 745.59 232 795.49 232 830.69 267.2"/>
  <polygon id="_4" data-name=" 4" class="cls-2" points="421.5 1193.69 398.1 1170.29 398.1 1137.09 421.5 1113.69 454.7 1113.69 478.1 1137.09 478.1 1170.29 454.7 1193.69 421.5 1193.69"/>
  <polygon id="_3" data-name=" 3" class="cls-2" points="408.2 900.09 366.1 857.99 366.1 798.29 408.2 756.09 467.9 756.09 510.1 798.29 510.1 857.99 467.9 900.09 408.2 900.09"/>
  <polygon id="_2" data-name=" 2" class="cls-2" points="414.2 537.8 438.1 561.7 462 537.8 495.8 537.8 519.7 561.7 519.7 595.6 495.8 619.5 519.7 643.39 519.7 677.2 495.8 701.1 462 701.1 438.1 677.2 414.2 701.1 380.4 701.1 356.5 677.2 356.5 643.39 380.4 619.5 356.5 595.6 356.5 561.7 380.4 537.8 414.2 537.8"/>
  <polygon id="_1" data-name=" 1" class="cls-2" points="53.1 1263.69 0.5 1210.89 0.5 1136.49 53.1 1083.69 127.7 1083.69 180.5 1136.49 180.5 1210.89 127.7 1263.69 53.1 1263.69"/>
</svg>
